<svg xmlns="http://www.w3.org/2000/svg" viewBox="0 0 32 32" xml:space="preserve">
    <path d="M16 28.952c-.769 0-1.405-.508-1.966-.956-.38-.303-.739-.59-1.067-.678-.313-.084-.806-.026-1.317.049-.773.115-1.593.16-2.128-.15-.65-.376-.944-1.125-1.204-1.786-.181-.461-.353-.897-.603-1.147s-.686-.421-1.146-.602c-.661-.259-1.411-.554-1.787-1.205-.371-.64-.258-1.396-.15-2.127.07-.474.143-.965.049-1.316-.088-.328-.375-.687-.678-1.067-.447-.562-.955-1.198-.955-1.967s.508-1.405.956-1.966c.303-.38.59-.739.678-1.067.094-.352.021-.842-.049-1.317-.108-.731-.221-1.487.15-2.128.376-.65 1.125-.944 1.786-1.204.461-.181.897-.352 1.147-.602s.421-.686.602-1.146c.259-.661.554-1.411 1.205-1.787.534-.308 1.355-.264 2.127-.15.511.076 1.003.134 1.316.049.328-.088.687-.375 1.067-.678.562-.448 1.198-.956 1.967-.956s1.405.508 1.966.956c.38.303.739.59 1.067.678.313.084.806.026 1.316-.049.775-.114 1.594-.159 2.128.15.65.376.944 1.125 1.204 1.786.181.461.353.897.603 1.147s.686.421 1.146.602c.661.259 1.411.554 1.787 1.205.371.64.258 1.396.15 2.127-.07.474-.143.965-.049 1.316.088.328.375.687.678 1.067.448.561.956 1.197.956 1.966s-.508 1.405-.956 1.966c-.303.38-.59.739-.678 1.067-.094.352-.021.842.049 1.316.108.731.221 1.488-.15 2.128-.376.65-1.125.944-1.786 1.204-.461.181-.897.353-1.147.603s-.421.686-.602 1.146c-.259.661-.554 1.411-1.205 1.787-.533.309-1.354.265-2.127.15-.511-.076-1.003-.133-1.316-.049-.328.088-.687.375-1.067.678-.562.449-1.198.957-1.967.957z"/>
    <path fill="red" d="M16 28.952m-3.436-2.679 c.246 0 .462.026.661.079.531.142.989.508 1.433.862.475.379.923.737 1.342.737s.868-.358 1.342-.737c.444-.354.902-.72 1.433-.862.484-.129 1.13-.062 1.721.026.619.091 1.188.142 1.48-.026.348-.202.555-.729.774-1.287.211-.537.429-1.091.826-1.488.397-.397.952-.616 1.489-.826.558-.219 1.085-.426 1.286-.774.196-.338.113-.893.026-1.48-.085-.575-.173-1.17-.026-1.721.142-.531.508-.989.862-1.433.379-.475.737-.923.737-1.342s-.358-.868-.737-1.342c-.354-.444-.72-.902-.862-1.433-.147-.551-.06-1.146.026-1.721.087-.587.169-1.142-.026-1.48-.202-.348-.729-.555-1.287-.774-.537-.211-1.091-.429-1.488-.826-.397-.397-.616-.952-.826-1.489-.219-.558-.426-1.085-.774-1.286-.292-.169-.862-.119-1.48-.026-.591.088-1.237.156-1.721.026-.531-.142-.989-.508-1.433-.862-.474-.382-.923-.74-1.342-.74s-.868.358-1.342.737c-.444.354-.902.72-1.433.862-.484.13-1.13.062-1.721-.026-.619-.092-1.189-.143-1.48.026-.349.203-.556.729-.775 1.288-.211.536-.429 1.091-.826 1.488-.397.397-.952.616-1.489.826-.558.219-1.085.426-1.286.774-.196.338-.113.893-.026 1.48.085.575.173 1.17.026 1.721-.142.531-.508.989-.862 1.433-.38.475-.738.924-.738 1.343s.358.868.737 1.342c.354.444.72.902.862 1.433.147.552.06 1.146-.026 1.721-.087.587-.169 1.142.026 1.48.202.348.729.555 1.287.774.537.211 1.091.429 1.488.826.397.397.616.952.826 1.489.219.558.426 1.085.774 1.286.291.168.861.118 1.48.026.35-.05.709-.104 1.062-.104z" />
    <path d="M16.015 8.15c4.329 0 7.85 3.522 7.85 7.85s-3.522 7.85-7.85 7.85-7.85-3.522-7.85-7.85 3.522-7.85 7.85-7.85m0-1c-4.888 0-8.85 3.962-8.85 8.85s3.962 8.85 8.85 8.85 8.85-3.962 8.85-8.85-3.962-8.85-8.85-8.85z"/>
    <path d="M16.016 23.049a7.068 7.068 0 0 1-6.125-3.559.5.5 0 1 1 .868-.496 6.069 6.069 0 0 0 5.257 3.055 6.05 6.05 0 0 0 5.313-3.156.5.5 0 0 1 .878.48 7.05 7.05 0 0 1-6.191 3.676zM10.324 13.64a.5.5 0 0 1-.438-.74 7.05 7.05 0 0 1 12.316-.118.5.5 0 1 1-.868.496 6.05 6.05 0 0 0-10.57.102.505.505 0 0 1-.44.26z"/>
    <path d="M22,22 A8.48528,8.48528,270,1,1,22,10" fill="none" stroke="white" stroke-width="2" stroke-linecap="round" />

    <path fill="orange" d="M16 28.952c-.769 0-1.405-.508-1.966-.956-.38-.303-.739-.59-1.067-.678-.313-.084-.806-.026-1.317.049-.773.115-1.593.16-2.128-.15-.65-.376-.944-1.125-1.204-1.786-.181-.461-.353-.897-.603-1.147s-.686-.421-1.146-.602c-.661-.259-1.411-.554-1.787-1.205-.371-.64-.258-1.396-.15-2.127.07-.474.143-.965.049-1.316-.088-.328-.375-.687-.678-1.067-.447-.562-.955-1.198-.955-1.967s.508-1.405.956-1.966c.303-.38.59-.739.678-1.067.094-.352.021-.842-.049-1.317-.108-.731-.221-1.487.15-2.128.376-.65 1.125-.944 1.786-1.204.461-.181.897-.352 1.147-.602s.421-.686.602-1.146c.259-.661.554-1.411 1.205-1.787.534-.308 1.355-.264 2.127-.15.511.076 1.003.134 1.316.049.328-.088.687-.375 1.067-.678.562-.448 1.198-.956 1.967-.956s1.405.508 1.966.956c.38.303.739.59 1.067.678.313.084.806.026 1.316-.049.775-.114 1.594-.159 2.128.15.65.376.944 1.125 1.204 1.786.181.461.353.897.603 1.147s.686.421 1.146.602c.661.259 1.411.554 1.787 1.205.371.64.258 1.396.15 2.127-.07.474-.143.965-.049 1.316.088.328.375.687.678 1.067.448.561.956 1.197.956 1.966s-.508 1.405-.956 1.966c-.303.38-.59.739-.678 1.067-.094.352-.021.842.049 1.316.108.731.221 1.488-.15 2.128-.376.65-1.125.944-1.786 1.204-.461.181-.897.353-1.147.603s-.421.686-.602 1.146c-.259.661-.554 1.411-1.205 1.787-.533.309-1.354.265-2.127.15-.511-.076-1.003-.133-1.316-.049-.328.088-.687.375-1.067.678-.562.449-1.198.957-1.967.957z"/>
    <path d="M20,20 A5.65685,5.65685,270,1,1,20,12" fill="none" stroke="white" stroke-width="3" stroke-linecap="round" />
</svg>