{"accessors" : [{"bufferView" : 0, "byteOffset" : 0, "componentType" : 5123, "count" : 648, "type" : "SCALAR", "max" : [544], "min" : [0]}, {"bufferView" : 1, "byteOffset" : 0, "componentType" : 5126, "count" : 545, "type" : "VEC3", "max" : [51, 51, 1700], "min" : [-51, -51, 777.2839965820312], "name" : "POSITION"}, {"bufferView" : 1, "byteOffset" : 12, "componentType" : 5126, "count" : 545, "type" : "VEC3", "max" : [1, 0.3098039925098419, 0], "min" : [1, 0.3098039925098419, 0], "name" : "COLOR_0"}, {"bufferView" : 0, "byteOffset" : 1296, "componentType" : 5123, "count" : 1848, "type" : "SCALAR", "max" : [1547], "min" : [0]}, {"bufferView" : 2, "byteOffset" : 0, "componentType" : 5126, "count" : 1548, "type" : "VEC3", "max" : [51, 51, 879.2429809570312], "min" : [-51, -50.95859909057617, 749], "name" : "POSITION"}, {"bufferView" : 2, "byteOffset" : 12, "componentType" : 5126, "count" : 1548, "type" : "VEC3", "max" : [1, 1, 1], "min" : [1, 1, 1], "name" : "COLOR_0"}, {"bufferView" : 0, "byteOffset" : 4992, "componentType" : 5123, "count" : 4026, "type" : "SCALAR", "max" : [3343], "min" : [0]}, {"bufferView" : 3, "byteOffset" : 0, "componentType" : 5126, "count" : 3344, "type" : "VEC3", "max" : [51, 51, 850.8259887695312], "min" : [-51, -51, 0], "name" : "POSITION"}, {"bufferView" : 3, "byteOffset" : 12, "componentType" : 5126, "count" : 3344, "type" : "VEC3", "max" : [0, 0, 0], "min" : [0, 0, 0], "name" : "COLOR_0"}, {"bufferView" : 0, "byteOffset" : 13044, "componentType" : 5123, "count" : 5364, "type" : "SCALAR", "max" : [4469], "min" : [0]}, {"bufferView" : 4, "byteOffset" : 0, "componentType" : 5126, "count" : 4470, "type" : "VEC3", "max" : [612, 50.997501373291016, 50.718101501464844], "min" : [-0.00185034004971385, -50.997501373291016, -50.718101501464844], "name" : "POSITION"}, {"bufferView" : 4, "byteOffset" : 12, "componentType" : 5126, "count" : 4470, "type" : "VEC3", "max" : [1, 0.3098039925098419, 0], "min" : [1, 0.3098039925098419, 0], "name" : "COLOR_0"}, {"bufferView" : 0, "byteOffset" : 23772, "componentType" : 5123, "count" : 1392, "type" : "SCALAR", "max" : [1159], "min" : [0]}, {"bufferView" : 5, "byteOffset" : 0, "componentType" : 5126, "count" : 1160, "type" : "VEC3", "max" : [-1.5, 49.477298736572266, 200], "min" : [-49.477298736572266, 1.5, 0], "name" : "POSITION"}, {"bufferView" : 5, "byteOffset" : 12, "componentType" : 5126, "count" : 1160, "type" : "VEC3", "max" : [0.6666669845581055, 0.6980389952659607, 0.7686280012130737], "min" : [0.6666669845581055, 0.6980389952659607, 0.7686280012130737], "name" : "COLOR_0"}, {"bufferView" : 0, "byteOffset" : 26556, "componentType" : 5123, "count" : 1236, "type" : "SCALAR", "max" : [1031], "min" : [0]}, {"bufferView" : 6, "byteOffset" : 0, "componentType" : 5126, "count" : 1032, "type" : "VEC3", "max" : [3.4694499165689296E-15, 200, 11], "min" : [-123, -2.7755599332551437E-14, 0], "name" : "POSITION"}, {"bufferView" : 6, "byteOffset" : 12, "componentType" : 5126, "count" : 1032, "type" : "VEC3", "max" : [1, 1, 1], "min" : [1, 1, 1], "name" : "COLOR_0"}, {"bufferView" : 0, "byteOffset" : 29028, "componentType" : 5123, "count" : 1392, "type" : "SCALAR", "max" : [1159], "min" : [0]}, {"bufferView" : 7, "byteOffset" : 0, "componentType" : 5126, "count" : 1160, "type" : "VEC3", "max" : [-1.5, 49.477298736572266, 200], "min" : [-49.477298736572266, 1.5, 0], "name" : "POSITION"}, {"bufferView" : 7, "byteOffset" : 12, "componentType" : 5126, "count" : 1160, "type" : "VEC3", "max" : [1, 0.5019609928131104, 0.5019609928131104], "min" : [1, 0.5019609928131104, 0.5019609928131104], "name" : "COLOR_0"}, {"bufferView" : 0, "byteOffset" : 31812, "componentType" : 5125, "count" : 91080, "type" : "SCALAR", "max" : [75826], "min" : [0]}, {"bufferView" : 8, "byteOffset" : 0, "componentType" : 5126, "count" : 75827, "type" : "VEC3", "max" : [49.5, 49.5, 16], "min" : [-49.5, -49.5, 0], "name" : "POSITION"}, {"bufferView" : 8, "byteOffset" : 12, "componentType" : 5126, "count" : 75827, "type" : "VEC3", "max" : [0.8941180109977722, 0.9137259721755981, 0.9294120073318481], "min" : [0.8941180109977722, 0.9137259721755981, 0.9294120073318481], "name" : "COLOR_0"}, {"bufferView" : 0, "byteOffset" : 396132, "componentType" : 5123, "count" : 5748, "type" : "SCALAR", "max" : [4773], "min" : [0]}, {"bufferView" : 9, "byteOffset" : 0, "componentType" : 5126, "count" : 4774, "type" : "VEC3", "max" : [40, 39.97560119628906, 0], "min" : [-40, -40, -7], "name" : "POSITION"}, {"bufferView" : 9, "byteOffset" : 12, "componentType" : 5126, "count" : 4774, "type" : "VEC3", "max" : [0.8941180109977722, 0.9137259721755981, 0.9294120073318481], "min" : [0.8941180109977722, 0.9137259721755981, 0.9294120073318481], "name" : "COLOR_0"}], "asset" : {"generator" : "Aspose.3D 22.5.1", "version" : "2.0"}, "buffers" : [{"uri" : "data:application/octet-stream;base64,", "byteLength" : 3113284}], "bufferViews" : [{"buffer" : 0, "byteOffset" : 0, "byteLength" : 407628, "target" : 34963}, {"buffer" : 0, "byteOffset" : 407632, "byteLength" : 15552, "byteStride" : 24, "target" : 34962}, {"buffer" : 0, "byteOffset" : 423188, "byteLength" : 44352, "byteStride" : 24, "target" : 34962}, {"buffer" : 0, "byteOffset" : 467544, "byteLength" : 96624, "byteStride" : 24, "target" : 34962}, {"buffer" : 0, "byteOffset" : 564172, "byteLength" : 128736, "byteStride" : 24, "target" : 34962}, {"buffer" : 0, "byteOffset" : 692912, "byteLength" : 33408, "byteStride" : 24, "target" : 34962}, {"buffer" : 0, "byteOffset" : 726324, "byteLength" : 29664, "byteStride" : 24, "target" : 34962}, {"buffer" : 0, "byteOffset" : 755992, "byteLength" : 33408, "byteStride" : 24, "target" : 34962}, {"buffer" : 0, "byteOffset" : 789404, "byteLength" : 2185920, "byteStride" : 24, "target" : 34962}, {"buffer" : 0, "byteOffset" : 2975328, "byteLength" : 137952, "byteStride" : 24, "target" : 34962}], "meshes" : [{"primitives" : [{"attributes" : {"POSITION" : 1, "COLOR_0" : 2}, "indices" : 0, "mode" : 4}], "name" : ""}, {"primitives" : [{"attributes" : {"POSITION" : 4, "COLOR_0" : 5}, "indices" : 3, "mode" : 4}], "name" : ""}, {"primitives" : [{"attributes" : {"POSITION" : 7, "COLOR_0" : 8}, "indices" : 6, "mode" : 4}], "name" : ""}, {"primitives" : [{"attributes" : {"POSITION" : 10, "COLOR_0" : 11}, "indices" : 9, "mode" : 4}], "name" : ""}, {"primitives" : [{"attributes" : {"POSITION" : 13, "COLOR_0" : 14}, "indices" : 12, "mode" : 4}], "name" : ""}, {"primitives" : [{"attributes" : {"POSITION" : 16, "COLOR_0" : 17}, "indices" : 15, "mode" : 4}], "name" : ""}, {"primitives" : [{"attributes" : {"POSITION" : 19, "COLOR_0" : 20}, "indices" : 18, "mode" : 4}], "name" : ""}, {"primitives" : [{"attributes" : {"POSITION" : 22, "COLOR_0" : 23}, "indices" : 21, "mode" : 4}], "name" : ""}, {"primitives" : [{"attributes" : {"POSITION" : 25, "COLOR_0" : 26}, "indices" : 24, "mode" : 4}], "name" : ""}], "nodes" : [{"mesh" : 0, "name" : "object_6"}, {"mesh" : 1, "name" : "object_7"}, {"mesh" : 2, "name" : "object_8"}, {"children" : [0, 1, 2], "name" : "constellation_1"}, {"mesh" : 3, "name" : "constellation_2"}, {"mesh" : 4, "name" : "constellation_10"}, {"mesh" : 4, "name" : "constellation_11"}, {"mesh" : 5, "name" : "constellation_12"}, {"mesh" : 5, "name" : "constellation_13"}, {"mesh" : 6, "name" : "constellation_14"}, {"mesh" : 5, "name" : "constellation_15"}, {"mesh" : 5, "name" : "constellation_16"}, {"mesh" : 4, "name" : "constellation_17"}, {"children" : [5, 6, 7, 8, 9, 10, 11, 12], "name" : "constellation_3"}, {"mesh" : 7, "name" : "constellation_4"}, {"mesh" : 8, "name" : "constellation_5"}, {"children" : [3, 4, 13, 14, 15], "name" : "constellation_0"}, {"mesh" : 0, "name" : "object_6"}, {"mesh" : 1, "name" : "object_7"}, {"mesh" : 2, "name" : "object_8"}, {"children" : [17, 18, 19], "name" : "constellation_1"}, {"matrix" : [-1.1248198369963932E-32, -6.123233995736766E-17, -1, 0, -1.224646799147353E-16, -1, 6.123233995736766E-17, 0, -1, 1.224646799147353E-16, 3.749399456654644E-33, 0, 0, 6.93889E-18, 2.21, 1], "mesh" : 3, "name" : "constellation_2"}, {"mesh" : 4, "name" : "constellation_10"}, {"mesh" : 4, "name" : "constellation_11"}, {"mesh" : 5, "name" : "constellation_12"}, {"mesh" : 5, "name" : "constellation_13"}, {"mesh" : 6, "name" : "constellation_14"}, {"mesh" : 5, "name" : "constellation_15"}, {"mesh" : 5, "name" : "constellation_16"}, {"mesh" : 4, "name" : "constellation_17"}, {"children" : [22, 23, 24, 25, 26, 27, 28, 29], "name" : "constellation_3"}, {"matrix" : [-0.9238795325112868, -0.38268343236508967, 0, 0, -0.38268343236508967, 0.9238795325112868, 1.2246467991473532E-16, 0, -4.686520405326297E-17, 1.1314261122877005E-16, -1, 0, -1.38778E-17, 0, 0.208, 1], "mesh" : 4, "name" : "constellation_10"}, {"matrix" : [-0.3826834323650897, 0.9238795325112867, 0, 0, 0.9238795325112867, 0.3826834323650897, 1.2246467991473532E-16, 0, 1.1314261122877003E-16, 4.6865204053262974E-17, -1, 0, 1.38778E-17, 0, 0.208, 1], "mesh" : 4, "name" : "constellation_11"}, {"matrix" : [-0.38268343236508984, 4.686520405326299E-17, 0.9238795325112867, 0, -0.9238795325112867, 2.96839631100873E-16, -0.38268343236508984, 0, -2.9217859675789035E-16, -1, -7.029780607989448E-17, 0, 0.0120851, 0.0252563, 0.008, 1], "mesh" : 5, "name" : "constellation_12"}, {"matrix" : [0.9238795325112867, 0, 0.3826834323650898, 0, -0.3826834323650898, 6.123233995736766E-17, 0.9238795325112867, 0, -2.3432602026631493E-17, -1, 5.657130561438501E-17, 0, -0.0252563, 0.0120851, 0.008, 1], "mesh" : 5, "name" : "constellation_13"}, {"matrix" : [0.9238795325112867, 0.3826834323650898, 0, 0, 0.3826834323650898, -0.9238795325112867, 1.2246467991473532E-16, 0, 4.6865204053262986E-17, -1.1314261122877003E-16, -1, 0, 0, 0, 0.208, 1], "mesh" : 6, "name" : "constellation_14"}, {"matrix" : [-0.9238795325112867, 1.1314261122877003E-16, -0.3826834323650898, 0, 0.3826834323650898, 1.3683181581883998E-16, -0.9238795325112867, 0, -5.2166873834840845E-17, -1, -1.6971391684315505E-16, 0, 0.0252563, -0.0120851, 0.008, 1], "mesh" : 5, "name" : "constellation_15"}, {"matrix" : [0.38268343236508984, 0, -0.9238795325112867, 0, 0.9238795325112867, 6.123233995736766E-17, 0.38268343236508984, 0, 5.657130561438501E-17, -1, 2.3432602026631496E-17, 0, -0.0120851, -0.0252563, 0.008, 1], "mesh" : 5, "name" : "constellation_16"}, {"matrix" : [0.38268343236509, -0.9238795325112866, 0, 0, -0.9238795325112866, -0.38268343236509, 1.2246467991473532E-16, 0, -1.1314261122877003E-16, -4.686520405326301E-17, -1, 0, 1.38778E-17, 0, 0.208, 1], "mesh" : 4, "name" : "constellation_17"}, {"mesh" : 7, "name" : "constellation_4"}, {"matrix" : [0.9999998134218362, -0.0006108652002072944, 0, 0, 0.0006108652002072944, 0.9999998134218362, 0, 0, 0, 0, 1, 0, 0, 0, 0, 1], "mesh" : 8, "name" : "constellation_5"}], "scene" : 0, "scenes" : [{"nodes" : [16, 20, 21, 30, 31, 32, 33, 34, 35, 36, 37, 38, 39, 40]}]}