<svg xmlns="http://www.w3.org/2000/svg" viewBox="-9.1421356 0 118.2842712 118.2842712" width="512" height="512">
    <style type="text/css">
        .fg { stroke: #212121; }
        @media (prefers-color-scheme: dark) { .fg { stroke: #ededed; } }
    </style>
    <mask id="logo-mask">
        <rect x="0" y="0" width="100" height="116.75" fill="black" />
        <path d="M100,48.2842712 L100,120,0,120,0,48.2842712,30,48.2842712 A68.2842712,68.2842712,45,0,1,50,0 A68.2842712,68.2842712,45,0,1,70,48.2842712" fill="white" />
    </mask>
    <g  mask="url(#logo-mask)" style="transform-origin: center;" transform-origin="center" transform="scale(.9)">    
        <path fill="none" class="fg" stroke-width="8"  d="M100,114.2842712 A66,66,90,0,1,34,48.2842712" />
        <path fill="none" class="fg" stroke-width="8"  d="M100,098.2842712 A50,50,90,0,1,50,48.2842712 A48.2842712,48.2842712,90,0,0,1.71572875,0" />
        <path fill="none" class="fg" stroke-width="8"  d="M100,082.2842712 A34,34,90,0,1,66,48.2842712 A64.2842712,64.2842712,90,0,0,1.71572875,-16" />
        <path fill="none" stroke="#ff4f00" stroke-width="8"  d="M0,114.2842712 A66,66,90,0,0,66,48.2842712 A32.2842712,32.2842712,90,0,1,98.2842712,16" />
        <path fill="none" stroke="#ff4f00" stroke-width="8"  d="M0,098.2842712 A50,50,90,0,0,50,48.2842712 A48.2842712,48.2842712,90,0,1,98.2842712,0" />
        <path fill="none" stroke="#ff4f00" stroke-width="8"  d="M0,082.2842712 A34,34,90,0,0,34,48.2842712 A64.2842712,64.2842712,90,0,1,98.2842712,-16" />
    </g>
</svg>